<svg width="189" height="186" version="1.1" xmlns="http://www.w3.org/2000/svg" desc="Created with imagetracer.js version 1.2.6" ><path fill="rgb(108,98,255)" stroke="rgb(108,98,255)" stroke-width="1" opacity="0.5411764705882353" d="M 47.5 0 L 55 0.5 L 47.5 1 L 47.5 0 Z " /><path fill="rgb(108,98,255)" stroke="rgb(108,98,255)" stroke-width="1" opacity="0.5411764705882353" d="M 135.5 0 L 141 0.5 L 135.5 1 L 135.5 0 Z " /><path fill="rgb(108,98,255)" stroke="rgb(108,98,255)" stroke-width="1" opacity="0.5411764705882353" d="M 43.5 1 L 46 1.5 L 43.5 2 L 43.5 1 Z " /><path fill="rgb(108,98,255)" stroke="rgb(108,98,255)" stroke-width="1" opacity="0.5411764705882353" d="M 143.5 1 L 146 1.5 L 143.5 2 L 143.5 1 Z " /><path fill="rgb(108,98,255)" stroke="rgb(108,98,255)" stroke-width="1" opacity="0.5411764705882353" d="M 39.5 2 L 42 2.5 Q 31.2 4.7 24.5 11 L 26.5 8 L 39.5 2 Z " /><path fill="rgb(108,98,255)" stroke="rgb(108,98,255)" stroke-width="1" opacity="0.5411764705882353" d="M 147.5 2 L 150 2.5 L 147.5 3 L 147.5 2 Z " /><path fill="rgb(108,98,255)" stroke="rgb(108,98,255)" stroke-width="1" opacity="0.5411764705882353" d="M 160.5 7 L 161.5 9 L 160.5 7 Z " /><path fill="rgb(108,98,255)" stroke="rgb(108,98,255)" stroke-width="1" opacity="0.5411764705882353" d="M 163.5 9 L 164.5 11 L 163.5 9 Z " /><path fill="rgb(108,98,255)" stroke="rgb(108,98,255)" stroke-width="1" opacity="0.5411764705882353" d="M 22.5 11 L 18.5 16 L 16.5 17 L 17.5 15 L 22.5 11 Z " /><path fill="rgb(108,98,255)" stroke="rgb(108,98,255)" stroke-width="1" opacity="0.5411764705882353" d="M 166.5 11 L 170.5 16 L 166.5 11 Z " /><path fill="rgb(108,98,255)" stroke="rgb(108,98,255)" stroke-width="1" opacity="0.5411764705882353" d="M 172.5 16 L 178 22.5 L 173 18.5 L 172.5 16 Z " /><path fill="rgb(108,98,255)" stroke="rgb(108,98,255)" stroke-width="1" opacity="0.5411764705882353" d="M 15.5 18 L 11.5 23 L 15.5 18 Z " /><path fill="rgb(108,98,255)" stroke="rgb(108,98,255)" stroke-width="1" opacity="0.5411764705882353" d="M 10.5 24 L 9.5 26 L 10.5 24 Z " /><path fill="rgb(108,98,255)" stroke="rgb(108,98,255)" stroke-width="1" opacity="0.5411764705882353" d="M 178.5 24 L 186 36.5 L 187 41.5 L 186 41.5 L 185 36.5 L 178.5 24 Z " /><path fill="rgb(108,98,255)" stroke="rgb(108,98,255)" stroke-width="1" opacity="0.5411764705882353" d="M 8.5 27 L 7.5 29 L 8.5 27 Z " /><path fill="rgb(108,98,255)" stroke="rgb(108,98,255)" stroke-width="1" opacity="0.5411764705882353" d="M 2.5 39 L 3 41.5 L 2 41.5 L 2.5 39 Z " /><path fill="rgb(108,98,255)" stroke="rgb(108,98,255)" stroke-width="1" opacity="0.5411764705882353" d="M 1.5 43 L 2 45.5 L 1 45.5 L 1.5 43 Z " /><path fill="rgb(108,98,255)" stroke="rgb(108,98,255)" stroke-width="1" opacity="0.5411764705882353" d="M 187.5 43 L 188 45.5 L 187 45.5 L 187.5 43 Z " /><path fill="rgb(108,98,255)" stroke="rgb(108,98,255)" stroke-width="1" opacity="0.5411764705882353" d="M 188.5 47 L 189 54.5 L 188 54.5 L 188.5 47 Z " /><path fill="rgb(108,98,255)" stroke="rgb(108,98,255)" stroke-width="1" opacity="0.5411764705882353" d="M 0.5 48 L 1 53.5 L 0 53.5 L 0.5 48 Z " /><path fill="rgb(108,98,255)" stroke="rgb(108,98,255)" stroke-width="1" opacity="0.5411764705882353" d="M 0.5 131 L 1 138.5 L 0 138.5 L 0.5 131 Z " /><path fill="rgb(108,98,255)" stroke="rgb(108,98,255)" stroke-width="1" opacity="0.5411764705882353" d="M 188.5 132 L 189 137.5 L 188 137.5 L 188.5 132 Z " /><path fill="rgb(108,98,255)" stroke="rgb(108,98,255)" stroke-width="1" opacity="0.5411764705882353" d="M 1.5 140 L 2 142.5 L 1 142.5 L 1.5 140 Z " /><path fill="rgb(108,98,255)" stroke="rgb(108,98,255)" stroke-width="1" opacity="0.5411764705882353" d="M 187.5 140 L 188 142.5 L 187 142.5 L 187.5 140 Z " /><path fill="rgb(108,98,255)" stroke="rgb(108,98,255)" stroke-width="1" opacity="0.5411764705882353" d="M 2.5 144 Q 4.7 154.8 11 161.5 L 8 159.5 L 3 149.5 L 2.5 144 Z " /><path fill="rgb(108,98,255)" stroke="rgb(108,98,255)" stroke-width="1" opacity="0.5411764705882353" d="M 186.5 144 L 187 146.5 L 186 146.5 L 186.5 144 Z " /><path fill="rgb(108,98,255)" stroke="rgb(108,98,255)" stroke-width="1" opacity="0.5411764705882353" d="M 181.5 157 L 180.5 159 L 181.5 157 Z " /><path fill="rgb(108,98,255)" stroke="rgb(108,98,255)" stroke-width="1" opacity="0.5411764705882353" d="M 179.5 160 L 178.5 162 L 179.5 160 Z " /><path fill="rgb(108,98,255)" stroke="rgb(108,98,255)" stroke-width="1" opacity="0.5411764705882353" d="M 11.5 163 L 17 169.5 L 15 168.5 L 11.5 163 Z " /><path fill="rgb(108,98,255)" stroke="rgb(108,98,255)" stroke-width="1" opacity="0.5411764705882353" d="M 177.5 163 L 173.5 168 L 177.5 163 Z " /><path fill="rgb(108,98,255)" stroke="rgb(108,98,255)" stroke-width="1" opacity="0.5411764705882353" d="M 172.5 169 L 171.5 171 L 166.5 175 L 170.5 170 L 172.5 169 Z " /><path fill="rgb(108,98,255)" stroke="rgb(108,98,255)" stroke-width="1" opacity="0.5411764705882353" d="M 18.5 170 L 22.5 175 L 18.5 170 Z " /><path fill="rgb(108,98,255)" stroke="rgb(108,98,255)" stroke-width="1" opacity="0.5411764705882353" d="M 24.5 175 L 25.5 177 L 24.5 175 Z " /><path fill="rgb(108,98,255)" stroke="rgb(108,98,255)" stroke-width="1" opacity="0.5411764705882353" d="M 164.5 175 L 162.5 178 L 152.5 183 L 147.5 184 L 147.5 183 L 152.5 182 L 164.5 175 Z " /><path fill="rgb(108,98,255)" stroke="rgb(108,98,255)" stroke-width="1" opacity="0.5411764705882353" d="M 27.5 177 L 28.5 179 L 27.5 177 Z " /><path fill="rgb(108,98,255)" stroke="rgb(108,98,255)" stroke-width="1" opacity="0.5411764705882353" d="M 39.5 183 L 42 183.5 L 39.5 184 L 39.5 183 Z " /><path fill="rgb(108,98,255)" stroke="rgb(108,98,255)" stroke-width="1" opacity="0.5411764705882353" d="M 43.5 184 L 46 184.5 L 43.5 185 L 43.5 184 Z " /><path fill="rgb(108,98,255)" stroke="rgb(108,98,255)" stroke-width="1" opacity="0.5411764705882353" d="M 143.5 184 L 146 184.5 L 143.5 185 L 143.5 184 Z " /><path fill="rgb(108,98,255)" stroke="rgb(108,98,255)" stroke-width="1" opacity="0.5411764705882353" d="M 48.5 185 L 54 185.5 L 48.5 186 L 48.5 185 Z " /><path fill="rgb(108,98,255)" stroke="rgb(108,98,255)" stroke-width="1" opacity="0.5411764705882353" d="M 134.5 185 L 142 185.5 L 134.5 186 L 134.5 185 Z " /><path fill="rgb(108,99,255)" stroke="rgb(108,99,255)" stroke-width="1" opacity="1" d="M 55.5 0 L 134.5 0 Q 136.3 2.8 142.5 1 Q 161.9 5.1 173 17.5 Q 183.8 28.7 188 46.5 L 188 54.5 L 189 55.5 L 189 131.5 Q 186.3 133.3 188 139.5 L 184 152.5 L 171.5 170 Q 160.3 180.8 142.5 185 L 134.5 185 L 133.5 186 L 54.5 186 Q 52.7 183.3 46.5 185 L 33.5 181 L 16 168.5 Q 5.2 157.3 1 139.5 L 1 131.5 L 0 130.5 L 0 54.5 Q 2.8 52.7 1 46.5 L 5 33.5 L 17.5 16 Q 25.4 8.4 36.5 4 L 46.5 1 L 54.5 1 L 55.5 0 Z M 104 71 L 94 76 L 88 85 L 87 90 Q 87 102 92 109 Q 97 113 105 115 L 113 115 L 121 112 Q 127 109 127 100 Q 125 96 119 98 L 116 104 L 111 107 L 103 106 Q 98 103 97 98 Q 96 89 99 84 L 106 79 L 114 80 Q 117 81 117 86 L 119 87 L 127 87 L 125 79 Q 119 70 104 71 Z M 72 72 L 72 114 L 73 114 L 82 114 L 82 73 L 82 72 L 72 72 Z " /><path fill="rgb(0,0,0)" stroke="rgb(0,0,0)" stroke-width="1" opacity="0" d="M 0 0 L 47 0.5 Q 27.3 4.3 16 16.5 L 4 34.5 L 0.5 48 L 0 0 Z " /><path fill="rgb(0,0,0)" stroke="rgb(0,0,0)" stroke-width="1" opacity="0" d="M 141.5 0 L 189 0 L 189 46.5 L 188 46.5 Q 184.6 26.9 172.5 16 L 160.5 7 L 149.5 2 L 141.5 1 L 141.5 0 Z " /><path fill="rgb(0,0,0)" stroke="rgb(0,0,0)" stroke-width="1" opacity="0" d="M 188.5 138 L 189 186 L 142 185.5 Q 161.7 181.7 173 169.5 L 185 151.5 L 188.5 138 Z " /><path fill="rgb(0,0,0)" stroke="rgb(0,0,0)" stroke-width="1" opacity="0" d="M 0.5 139 Q 4.3 158.7 16.5 170 L 34.5 182 L 48 185.5 L 0 186 L 0.5 139 Z " /><path fill="rgb(218,215,255)" stroke="rgb(218,215,255)" stroke-width="1" opacity="1" d="M 103.5 71 L 112 71.5 L 103.5 72 L 103.5 71 Z " /><path fill="rgb(218,215,255)" stroke="rgb(218,215,255)" stroke-width="1" opacity="1" d="M 72.5 72 L 73 113.5 L 72 113.5 L 72.5 72 Z " /><path fill="rgb(218,215,255)" stroke="rgb(218,215,255)" stroke-width="1" opacity="1" d="M 81.5 72 L 82 113.5 L 81 113.5 L 81.5 72 Z " /><path fill="rgb(218,215,255)" stroke="rgb(218,215,255)" stroke-width="1" opacity="1" d="M 117.5 73 L 120 74.5 L 118.5 74 L 117.5 73 Z " /><path fill="rgb(218,215,255)" stroke="rgb(218,215,255)" stroke-width="1" opacity="1" d="M 96.5 74 L 95.5 76 L 96.5 74 Z " /><path fill="rgb(218,215,255)" stroke="rgb(218,215,255)" stroke-width="1" opacity="1" d="M 121.5 75 L 126 81.5 L 125 81.5 L 121.5 75 Z " /><path fill="rgb(218,215,255)" stroke="rgb(218,215,255)" stroke-width="1" opacity="1" d="M 93.5 76 L 93 77.5 L 90.5 81 L 92 78.5 L 93.5 76 Z " /><path fill="rgb(218,215,255)" stroke="rgb(218,215,255)" stroke-width="1" opacity="1" d="M 107.5 78 L 110 78.5 L 107.5 79 L 107.5 78 Z " /><path fill="rgb(218,215,255)" stroke="rgb(218,215,255)" stroke-width="1" opacity="1" d="M 103.5 79 L 105 79.5 L 99.5 83 L 101.5 80 L 103.5 79 Z " /><path fill="rgb(218,215,255)" stroke="rgb(218,215,255)" stroke-width="1" opacity="1" d="M 114.5 80 L 116.5 83 L 114.5 80 Z " /><path fill="rgb(218,215,255)" stroke="rgb(218,215,255)" stroke-width="1" opacity="1" d="M 89.5 82 L 90 83.5 L 88.5 87 L 88 84.5 L 89.5 82 Z " /><path fill="rgb(218,215,255)" stroke="rgb(218,215,255)" stroke-width="1" opacity="1" d="M 126.5 83 L 127 87 L 118.5 87 L 117 85.5 L 117.5 84 L 118 86 L 126 86 L 126.5 83 Z " /><path fill="rgb(218,215,255)" stroke="rgb(218,215,255)" stroke-width="1" opacity="1" d="M 97.5 86 L 98 88.5 L 97 88.5 L 97.5 86 Z " /><path fill="rgb(218,215,255)" stroke="rgb(218,215,255)" stroke-width="1" opacity="1" d="M 87.5 89 L 88 96.5 L 87 96.5 L 87.5 89 Z " /><path fill="rgb(218,215,255)" stroke="rgb(218,215,255)" stroke-width="1" opacity="1" d="M 96.5 90 L 97 95.5 L 96 95.5 L 96.5 90 Z " /><path fill="rgb(218,215,255)" stroke="rgb(218,215,255)" stroke-width="1" opacity="1" d="M 118.5 98 Q 125.3 96.3 127 99.5 L 126.5 103 L 126 99 L 118.5 99 L 118 100.5 L 117 100.5 L 118.5 98 Z " /><path fill="rgb(218,215,255)" stroke="rgb(218,215,255)" stroke-width="1" opacity="1" d="M 89.5 102 L 94 109.5 L 92 108.5 L 89 103.5 L 89.5 102 Z " /><path fill="rgb(218,215,255)" stroke="rgb(218,215,255)" stroke-width="1" opacity="1" d="M 116.5 102 L 117 103.5 L 114 105.5 L 116.5 102 Z " /><path fill="rgb(218,215,255)" stroke="rgb(218,215,255)" stroke-width="1" opacity="1" d="M 99.5 103 L 101.5 106 L 99.5 103 Z " /><path fill="rgb(218,215,255)" stroke="rgb(218,215,255)" stroke-width="1" opacity="1" d="M 125.5 104 L 126 105.5 L 124 106.5 L 125.5 104 Z " /><path fill="rgb(218,215,255)" stroke="rgb(218,215,255)" stroke-width="1" opacity="1" d="M 123.5 108 L 120.5 112 L 114.5 114 L 114.5 113 Q 120.8 112.3 123.5 108 Z " /><path fill="rgb(218,215,255)" stroke="rgb(218,215,255)" stroke-width="1" opacity="1" d="M 95.5 110 L 96.5 112 L 95.5 110 Z " /><path fill="rgb(218,215,255)" stroke="rgb(218,215,255)" stroke-width="1" opacity="1" d="M 104.5 114 L 113 114.5 L 104.5 115 L 104.5 114 Z " /><path fill="rgb(255,255,255)" stroke="rgb(255,255,255)" stroke-width="1" opacity="1" d="M 73 72 L 80.5 72 L 81 72.5 L 81 114 L 73.5 114 L 73 113.5 L 73 72 Z " /><path fill="rgb(255,255,255)" stroke="rgb(255,255,255)" stroke-width="1" opacity="1" d="M 102.5 72 Q 118.6 69.9 124 78.5 L 126 86 L 118.5 86 L 118 84.5 L 114.5 80 L 107.5 78 L 101.5 80 L 99 82.5 L 96 90.5 L 96 95.5 L 99 103.5 L 101.5 106 L 108.5 108 L 114.5 106 L 117 103.5 L 118 99 L 126 99 L 126 103.5 L 120.5 111 Q 114.7 115.7 102.5 114 L 93 108.5 Q 86.2 102.3 88 87.5 Q 89.4 80 94.5 76 L 102.5 72 Z " /></svg>